<svg width="52" height="52" viewBox="0 0 52 52" fill="none" xmlns="http://www.w3.org/2000/svg">
<rect width="52" height="52" rx="6" fill="white"/>
<g clip-path="url(#clip0_4904_54)">
<path d="M14.2043 29.9597L14.2448 29.9635C14.2726 29.966 14.3004 29.9698 14.3283 29.9723C14.7418 29.4539 15.1756 28.9457 15.6359 28.4513C16.377 27.6547 17.1573 26.9176 17.9705 26.2348C18.2007 26.0363 18.4347 25.8416 18.6712 25.6507C16.7956 25.174 14.8518 24.9262 12.8739 24.9262C12.5881 24.9262 12.3023 24.9312 12.0152 24.9414C12.0101 24.9414 12.0051 24.9414 12 24.9414V29.8446H12.0025C12.7462 29.8547 13.4873 29.8939 14.2056 29.9584L14.2043 29.9597Z" fill="#4F5F38"/>
<path d="M35.7069 19.6486C36.8754 19.6486 38.0402 19.7245 39.1936 19.8737V9.00506C39.0254 9.00253 38.8572 9 38.6902 9C32.1822 9 26.1232 10.9168 21.043 14.2156C25.1102 15.1715 28.8966 17.1009 32.1253 19.8901C33.3116 19.7321 34.5079 19.6486 35.7069 19.6486Z" fill="#D1BBA2"/>
<path d="M21.5635 23.6213C22.1224 23.2799 22.6928 22.9563 23.2733 22.6566C24.9515 21.7918 26.7233 21.1065 28.5483 20.6108C24.6025 17.8052 19.9131 16.3018 15.015 16.3018C14.7292 16.3018 14.4433 16.3069 14.1563 16.317C13.4303 16.3435 12.7107 16.4042 12 16.4953V22.161C15.3033 22.0522 18.5346 22.5567 21.5622 23.6213H21.5635Z" fill="#2B2C5A"/>
<path d="M27.0039 34.3964C29.6686 36.1299 32.0032 38.2679 33.9444 40.755L35.1636 42.3178H39.1941V32.0586C38.066 31.7956 36.8987 31.6603 35.7074 31.6603C32.5406 31.6603 29.537 32.6187 27.0039 34.3964Z" fill="#D1BBA2"/>
<path d="M17.6641 30.492C19.9329 30.9864 22.1435 31.7652 24.2378 32.8096L24.2543 32.8172C24.2796 32.8298 24.3049 32.8438 24.3302 32.8564C27.44 30.3314 31.4009 28.8142 35.7097 28.8142C36.9023 28.8142 38.067 28.9318 39.1964 29.153V22.7426C38.0569 22.5795 36.8934 22.4922 35.7097 22.4922C28.5643 22.4922 22.1309 25.5811 17.6653 30.4907L17.6641 30.492Z" fill="#2B2C5A"/>
<path d="M12 32.9462V42.319H31.2256C26.502 36.4763 19.5046 33.0625 12 32.9462Z" fill="#4F5F38"/>
</g>
<defs>
<clipPath id="clip0_4904_54">
<rect width="27.1955" height="33.319" fill="white" transform="translate(12 9)"/>
</clipPath>
</defs>
</svg>
