<svg width="191" height="34" viewBox="0 0 191 34" fill="none" xmlns="http://www.w3.org/2000/svg">
<g clip-path="url(#clip0_4894_35)">
<path d="M2.20433 20.9597L2.2448 20.9635C2.27262 20.966 2.30044 20.9698 2.32826 20.9723C2.74181 20.4539 3.1756 19.9457 3.63594 19.4513C4.37704 18.6547 5.15734 17.9176 5.97052 17.2348C6.2007 17.0363 6.43466 16.8416 6.67115 16.6507C4.79564 16.174 2.85184 15.9262 0.873889 15.9262C0.588073 15.9262 0.302257 15.9312 0.0151761 15.9414C0.0101174 15.9414 0.00505869 15.9414 0 15.9414V20.8446H0.00252935C0.746157 20.8547 1.48726 20.8939 2.20559 20.9584L2.20433 20.9597Z" fill="#4F5F38"/>
<path d="M23.7069 10.6486C24.8754 10.6486 26.0402 10.7245 27.1936 10.8737V0.00505754C27.0254 0.00252877 26.8572 0 26.6902 0C20.1822 0 14.1232 1.91681 9.04297 5.21558C13.1102 6.17146 16.8966 8.10091 20.1253 10.8901C21.3116 10.7321 22.5079 10.6486 23.7069 10.6486Z" fill="#D1BBA2"/>
<path d="M9.56346 14.6213C10.1224 14.28 10.6928 13.9563 11.2733 13.6566C12.9515 12.7918 14.7233 12.1065 16.5483 11.6108C12.6025 8.80517 7.91306 7.30182 3.01498 7.30182C2.72917 7.30182 2.44335 7.30688 2.15627 7.31699C1.43035 7.34354 0.710746 7.40423 0 7.49527V13.161C3.30333 13.0522 6.53457 13.5567 9.5622 14.6213H9.56346Z" fill="#2B2C5A"/>
<path d="M15.0039 25.3964C17.6686 27.1299 20.0032 29.2679 21.9444 31.755L23.1636 33.3178H27.1941V23.0586C26.066 22.7956 24.8987 22.6603 23.7074 22.6603C20.5406 22.6603 17.537 23.6187 15.0039 25.3964Z" fill="#D1BBA2"/>
<path d="M5.66406 21.492C7.93289 21.9864 10.1435 22.7652 12.2378 23.8096L12.2543 23.8172C12.2796 23.8298 12.3049 23.8438 12.3302 23.8564C15.44 21.3314 19.4009 19.8142 23.7097 19.8142C24.9023 19.8142 26.067 19.9318 27.1964 20.153V13.7426C26.0569 13.5795 24.8934 13.4922 23.7097 13.4922C16.5643 13.4922 10.1309 16.5811 5.66533 21.4907L5.66406 21.492Z" fill="#2B2C5A"/>
<path d="M0 23.9462V33.319H19.2256C14.502 27.4763 7.50457 24.0625 0 23.9462Z" fill="#4F5F38"/>
</g>
<path d="M39.2392 2.4975H36.3828L36.6593 4.21605V14.2031L36.3828 16.3167H39.2392L38.9832 14.5981V4.61105L39.2392 2.4975Z" fill="#2B2C5A"/>
<path d="M57.4144 2.4975H55.2081L55.4641 4.21605V13.2746L48.1394 2.4975H45.0859L45.8743 3.485V14.4596L45.6154 16.3167H47.804L47.5481 14.5981V5.79606L54.7375 16.3167H57.4144L57.1408 14.5981V4.63169L57.4144 2.4975Z" fill="#2B2C5A"/>
<path d="M62.3791 2.4975L62.082 4.33396L63.9529 3.72377H66.6122V14.2031L66.3386 16.3167H69.2714L68.9978 14.5981V3.72377H71.6571L73.528 4.33396L73.2309 2.4975H62.3791Z" fill="#2B2C5A"/>
<path d="M81.6278 15.0138V10.1381H84.5429L87.0433 10.6098V8.59645L84.8753 8.91481H81.6278V3.72377H85.8225L88.2053 4.33396L87.9288 2.4975H79.0273L79.2833 4.21605V14.2031L79.0273 16.3167H88.3229L88.5789 14.1825L86.2167 15.0138H81.6278Z" fill="#2B2C5A"/>
<path d="M106.463 15.5265C106.174 15.5265 105.921 15.4204 105.704 15.2111C105.486 15.0018 105.277 14.7336 105.074 14.4122C104.871 14.0909 104.662 13.7254 104.453 13.3157C104.245 12.9089 104.003 12.505 103.736 12.113C103.465 11.718 103.15 11.3495 102.791 11.0076C102.43 10.6656 102 10.3944 101.5 10.1969C102.762 10.0908 103.744 9.70464 104.453 9.03255C105.162 8.36046 105.518 7.47318 105.518 6.36776C105.518 5.12969 105.074 4.17756 104.189 3.50547C103.303 2.83337 102.044 2.50027 100.417 2.50027H94.293L94.5489 4.21883V14.2059L94.293 16.3195H97.1493L96.8934 14.6009V10.5536H98.1936C98.9672 10.5919 99.5879 10.7717 100.056 11.0872C100.52 11.4026 100.909 11.7799 101.218 12.222C101.526 12.6642 101.791 13.1359 102.015 13.6429C102.238 14.1499 102.494 14.6186 102.783 15.0549C103.071 15.4882 103.43 15.8478 103.856 16.1308C104.283 16.4138 104.856 16.5553 105.58 16.5553C105.842 16.5553 106.083 16.5317 106.298 16.4875C106.516 16.4403 106.748 16.3666 106.998 16.2605L106.86 15.4911C106.727 15.5177 106.598 15.5295 106.466 15.5295L106.463 15.5265ZM100.003 9.34796H96.8904V3.7236H99.7262C101.906 3.7236 102.997 4.65805 102.997 6.52694C102.997 8.39583 102 9.35091 100.003 9.35091V9.34796Z" fill="#2B2C5A"/>
<path d="M114.913 15.0138V4.61105L115.169 2.4975H112.312L112.568 4.21605V14.2031L112.312 16.3167H120.882L121.137 14.1825L118.772 15.0138H114.913Z" fill="#2B2C5A"/>
<path d="M137.947 4.28377C137.297 3.64705 136.53 3.14888 135.644 2.79514C134.759 2.43846 133.782 2.2616 132.72 2.2616C131.658 2.2616 130.679 2.43846 129.784 2.79514C128.89 3.14888 128.119 3.64705 127.469 4.28377C126.819 4.92344 126.313 5.67807 125.951 6.55356C125.59 7.42905 125.41 8.37823 125.41 9.40701C125.41 10.4358 125.59 11.385 125.951 12.2605C126.313 13.1359 126.819 13.8935 127.469 14.5302C128.119 15.1699 128.89 15.6651 129.784 16.0218C130.676 16.3785 131.655 16.5554 132.72 16.5554C133.785 16.5554 134.759 16.3785 135.644 16.0218C136.53 15.6651 137.3 15.1699 137.947 14.5302C138.598 13.8935 139.104 13.1359 139.465 12.2605C139.827 11.385 140.007 10.4358 140.007 9.40701C140.007 8.37823 139.827 7.42905 139.465 6.55356C139.104 5.67807 138.598 4.92049 137.947 4.28377ZM137.189 12.0423C136.965 12.7203 136.656 13.301 136.262 13.7904C135.868 14.2767 135.397 14.657 134.853 14.9253C134.309 15.1935 133.706 15.3291 133.05 15.3291C132.326 15.3291 131.655 15.164 131.032 14.8368C130.408 14.5067 129.864 14.0616 129.396 13.4956C128.928 12.9296 128.567 12.2575 128.302 11.4822C128.037 10.707 127.908 9.87571 127.908 8.99432C127.908 8.17779 128.019 7.43495 128.243 6.76285C128.467 6.09076 128.775 5.51299 129.17 5.02661C129.564 4.54023 130.037 4.16291 130.587 3.89172C131.14 3.62347 131.744 3.48787 132.4 3.48787C133.12 3.48787 133.794 3.65295 134.417 3.98015C135.041 4.3103 135.582 4.75542 136.041 5.32139C136.5 5.88736 136.862 6.55356 137.124 7.32588C137.386 8.09525 137.518 8.92947 137.518 9.82265C137.518 10.6244 137.406 11.3643 137.183 12.0423H137.189Z" fill="#2B2C5A"/>
<path d="M159.172 2.4975H156.237L152.101 10.6098L147.982 2.4975H144.891L145.167 4.31333V14.1825L144.891 16.3167H147.097L146.841 14.5981V5.28315L151.153 13.985H152.315L156.572 5.40106V14.2031L156.316 16.3167H159.172L158.916 14.5981V4.31333L159.172 2.4975Z" fill="#2B2C5A"/>
<path d="M172.136 2.4975H169.3L169.832 3.20791L165.126 14.8339L164.438 16.3137H166.741L167.035 14.5952L167.664 12.9975H173.889L174.501 14.5952L174.795 16.3137H177.807L177.119 14.8339L172.136 2.4975ZM168.115 11.7771L170.794 4.88815L173.433 11.7771H168.115Z" fill="#2B2C5A"/>
<path d="M190.287 10.9664C189.992 10.4535 189.625 9.99656 189.184 9.59567C188.742 9.19477 188.263 8.82925 187.745 8.49909C187.227 8.17189 186.748 7.84469 186.307 7.52338C185.865 7.20207 185.498 6.86013 185.203 6.49755C184.909 6.13498 184.759 5.72524 184.759 5.26538C184.759 4.7112 184.98 4.27788 185.418 3.96246C185.859 3.64705 186.46 3.48787 187.221 3.48787C187.748 3.48787 188.248 3.56746 188.728 3.72369C189.207 3.88287 189.631 4.09217 189.998 4.35452L189.781 2.83347C189.36 2.6507 188.91 2.50921 188.43 2.40899C187.951 2.31171 187.448 2.2616 186.924 2.2616C185.518 2.2616 184.412 2.57406 183.606 3.19899C182.8 3.82392 182.394 4.68762 182.394 5.79304C182.394 6.47692 182.541 7.06647 182.838 7.55875C183.133 8.05103 183.509 8.49615 183.962 8.89115C184.415 9.28615 184.901 9.64578 185.418 9.96709C185.936 10.2884 186.424 10.6156 186.877 10.9428C187.33 11.273 187.704 11.6237 188.001 11.9981C188.298 12.3725 188.445 12.8117 188.445 13.3099C188.445 13.9407 188.207 14.4359 187.727 14.7897C187.248 15.1463 186.595 15.3232 185.768 15.3232C185.139 15.3232 184.495 15.2141 183.839 14.9989C183.183 14.7808 182.565 14.4831 181.988 14.0999L182.282 15.9363C182.73 16.1338 183.25 16.2842 183.847 16.3903C184.445 16.4964 185.059 16.5495 185.689 16.5495C187.277 16.5495 188.516 16.2164 189.401 15.5531C190.287 14.8899 190.731 13.9643 190.731 12.7793C190.731 12.0806 190.584 11.4763 190.287 10.9634V10.9664Z" fill="#2B2C5A"/>
<path d="M74.7748 25.9838H75.9508L77.1929 29.0141H77.2457L78.4878 25.9838H79.6638V30.494H78.7389V27.5584H78.7014L77.5342 30.472H76.9044L75.7372 27.5474H75.6998V30.494H74.7748V25.9838ZM87.3044 30.494H86.2825L87.8395 25.9838H89.0684L90.6232 30.494H89.6013L88.4716 27.0144H88.4363L87.3044 30.494ZM87.2405 28.7212H89.6542V29.4655H87.2405V28.7212ZM97.1951 30.494V29.928L99.4458 26.77H97.1907V25.9838H100.644V26.5498L98.3909 29.7078H100.648V30.494H97.1951ZM108.235 30.494H107.213L108.77 25.9838H109.999L111.554 30.494H110.532L109.402 27.0144H109.367L108.235 30.494ZM108.171 28.7212H110.585V29.4655H108.171V28.7212ZM117.451 26.77V25.9838H121.155V26.77H119.774V30.494H118.832V26.77H117.451ZM127.843 30.494V25.9838H128.796V29.7078H130.73V30.494H127.843ZM138.331 30.494H137.31L138.867 25.9838H140.095L141.65 30.494H140.628L139.499 27.0144H139.463L138.331 30.494ZM138.268 28.7212H140.681V29.4655H138.268V28.7212ZM139.144 25.5477L139.611 24.5457H140.479L139.807 25.5477H139.144ZM152.043 25.9838V30.494H151.219L149.257 27.6553H149.224V30.494H148.271V25.9838H149.107L151.054 28.8203H151.094V25.9838H152.043Z" fill="#D1BBA2"/>
<defs>
<clipPath id="clip0_4894_35">
<rect width="27.1955" height="33.319" fill="white"/>
</clipPath>
</defs>
</svg>
