<svg width="191" height="34" viewBox="0 0 191 34" fill="none" xmlns="http://www.w3.org/2000/svg">
<g clip-path="url(#clip0_4894_57)">
<path d="M2.20433 20.9597L2.2448 20.9635C2.27262 20.966 2.30044 20.9698 2.32826 20.9723C2.74181 20.4539 3.1756 19.9456 3.63594 19.4513C4.37704 18.6547 5.15734 17.9176 5.97052 17.2348C6.2007 17.0363 6.43466 16.8416 6.67115 16.6507C4.79564 16.174 2.85184 15.9262 0.873889 15.9262C0.588073 15.9262 0.302257 15.9312 0.0151761 15.9413C0.0101174 15.9413 0.00505869 15.9413 0 15.9413V20.8446H0.00252935C0.746157 20.8547 1.48726 20.8939 2.20559 20.9584L2.20433 20.9597Z" fill="white"/>
<path d="M23.7069 10.6486C24.8754 10.6486 26.0402 10.7245 27.1936 10.8737V0.00505754C27.0254 0.00252877 26.8572 0 26.6902 0C20.1822 0 14.1232 1.91681 9.04297 5.21558C13.1102 6.17146 16.8966 8.10091 20.1253 10.8901C21.3116 10.7321 22.5079 10.6486 23.7069 10.6486Z" fill="white"/>
<path d="M9.56346 14.6213C10.1224 14.2799 10.6928 13.9563 11.2733 13.6566C12.9515 12.7918 14.7233 12.1065 16.5483 11.6108C12.6025 8.80516 7.91306 7.3018 3.01498 7.3018C2.72917 7.3018 2.44335 7.30686 2.15627 7.31698C1.43035 7.34353 0.710746 7.40422 0 7.49525V13.161C3.30333 13.0522 6.53457 13.5567 9.5622 14.6213H9.56346Z" fill="white"/>
<path d="M15.0039 25.3964C17.6686 27.1299 20.0032 29.2679 21.9444 31.755L23.1636 33.3178H27.1941V23.0586C26.066 22.7956 24.8987 22.6603 23.7074 22.6603C20.5406 22.6603 17.537 23.6187 15.0039 25.3964Z" fill="white"/>
<path d="M5.66406 21.492C7.93289 21.9864 10.1435 22.7652 12.2378 23.8096L12.2543 23.8172C12.2796 23.8298 12.3049 23.8437 12.3302 23.8564C15.44 21.3314 19.4009 19.8142 23.7097 19.8142C24.9023 19.8142 26.067 19.9317 27.1964 20.153V13.7426C26.0569 13.5795 24.8934 13.4922 23.7097 13.4922C16.5643 13.4922 10.1309 16.5811 5.66533 21.4907L5.66406 21.492Z" fill="white"/>
<path d="M0 23.9462V33.319H19.2256C14.502 27.4763 7.50457 24.0625 0 23.9462Z" fill="white"/>
</g>
<path d="M39.2392 2.49747H36.3828L36.6593 4.21602V14.2031L36.3828 16.3166H39.2392L38.9832 14.5981V4.61102L39.2392 2.49747Z" fill="white"/>
<path d="M57.4144 2.49747H55.2081L55.4641 4.21602V13.2745L48.1394 2.49747H45.0859L45.8743 3.48497V14.4595L45.6154 16.3166H47.804L47.5481 14.5981V5.79603L54.7375 16.3166H57.4144L57.1408 14.5981V4.63166L57.4144 2.49747Z" fill="white"/>
<path d="M62.3791 2.49747L62.082 4.33393L63.9529 3.72374H66.6122V14.2031L66.3386 16.3166H69.2714L68.9978 14.5981V3.72374H71.6571L73.528 4.33393L73.2309 2.49747H62.3791Z" fill="white"/>
<path d="M81.6278 15.0137V10.1381H84.5429L87.0433 10.6097V8.59642L84.8753 8.91478H81.6278V3.72374H85.8225L88.2053 4.33393L87.9288 2.49747H79.0273L79.2833 4.21602V14.2031L79.0273 16.3166H88.3229L88.5789 14.1825L86.2167 15.0137H81.6278Z" fill="white"/>
<path d="M106.463 15.5265C106.174 15.5265 105.921 15.4204 105.704 15.2111C105.486 15.0018 105.277 14.7335 105.074 14.4122C104.871 14.0909 104.662 13.7254 104.453 13.3157C104.245 12.9089 104.003 12.505 103.736 12.113C103.465 11.718 103.15 11.3495 102.791 11.0075C102.43 10.6656 102 10.3944 101.5 10.1969C102.762 10.0908 103.744 9.70463 104.453 9.03254C105.162 8.36044 105.518 7.47316 105.518 6.36774C105.518 5.12968 105.074 4.17755 104.189 3.50545C103.303 2.83336 102.044 2.50026 100.417 2.50026H94.293L94.5489 4.21881V14.2059L94.293 16.3194H97.1493L96.8934 14.6009V10.5536H98.1936C98.9672 10.5919 99.5879 10.7717 100.056 11.0871C100.52 11.4025 100.909 11.7799 101.218 12.222C101.526 12.6642 101.791 13.1358 102.015 13.6429C102.238 14.1499 102.494 14.6186 102.783 15.0548C103.071 15.4882 103.43 15.8478 103.856 16.1308C104.283 16.4138 104.856 16.5553 105.58 16.5553C105.842 16.5553 106.083 16.5317 106.298 16.4875C106.516 16.4403 106.748 16.3666 106.998 16.2605L106.86 15.4911C106.727 15.5176 106.598 15.5294 106.466 15.5294L106.463 15.5265ZM100.003 9.34795H96.8904V3.72359H99.7262C101.906 3.72359 102.997 4.65803 102.997 6.52692C102.997 8.39582 102 9.3509 100.003 9.3509V9.34795Z" fill="white"/>
<path d="M114.913 15.0137V4.61102L115.169 2.49747H112.312L112.568 4.21602V14.2031L112.312 16.3166H120.882L121.137 14.1825L118.772 15.0137H114.913Z" fill="white"/>
<path d="M137.947 4.28376C137.297 3.64704 136.53 3.14886 135.644 2.79513C134.759 2.43845 133.782 2.26158 132.72 2.26158C131.658 2.26158 130.679 2.43845 129.784 2.79513C128.89 3.14886 128.119 3.64704 127.469 4.28376C126.819 4.92342 126.313 5.67806 125.951 6.55355C125.59 7.42904 125.41 8.37822 125.41 9.40699C125.41 10.4358 125.59 11.385 125.951 12.2604C126.313 13.1359 126.819 13.8935 127.469 14.5302C128.119 15.1699 128.89 15.6651 129.784 16.0218C130.676 16.3785 131.655 16.5554 132.72 16.5554C133.785 16.5554 134.759 16.3785 135.644 16.0218C136.53 15.6651 137.3 15.1699 137.947 14.5302C138.598 13.8935 139.104 13.1359 139.465 12.2604C139.827 11.385 140.007 10.4358 140.007 9.40699C140.007 8.37822 139.827 7.42904 139.465 6.55355C139.104 5.67806 138.598 4.92048 137.947 4.28376ZM137.189 12.0423C136.965 12.7203 136.656 13.301 136.262 13.7903C135.868 14.2767 135.397 14.657 134.853 14.9252C134.309 15.1935 133.706 15.3291 133.05 15.3291C132.326 15.3291 131.655 15.164 131.032 14.8368C130.408 14.5067 129.864 14.0615 129.396 13.4956C128.928 12.9296 128.567 12.2575 128.302 11.4822C128.037 10.707 127.908 9.87569 127.908 8.9943C127.908 8.17777 128.019 7.43493 128.243 6.76284C128.467 6.09074 128.775 5.51298 129.17 5.0266C129.564 4.54021 130.037 4.1629 130.587 3.8917C131.14 3.62345 131.744 3.48786 132.4 3.48786C133.12 3.48786 133.794 3.65293 134.417 3.98014C135.041 4.31029 135.582 4.7554 136.041 5.32137C136.5 5.88735 136.862 6.55355 137.124 7.32586C137.386 8.09523 137.518 8.92946 137.518 9.82263C137.518 10.6244 137.406 11.3643 137.183 12.0423H137.189Z" fill="white"/>
<path d="M159.172 2.49747H156.237L152.101 10.6097L147.982 2.49747H144.891L145.167 4.3133V14.1825L144.891 16.3166H147.097L146.841 14.5981V5.28312L151.153 13.985H152.315L156.572 5.40103V14.2031L156.316 16.3166H159.172L158.916 14.5981V4.3133L159.172 2.49747Z" fill="white"/>
<path d="M172.136 2.49747H169.3L169.832 3.20788L165.126 14.8339L164.438 16.3137H166.741L167.035 14.5951L167.664 12.9975H173.889L174.501 14.5951L174.795 16.3137H177.807L177.119 14.8339L172.136 2.49747ZM168.115 11.7771L170.794 4.88812L173.433 11.7771H168.115Z" fill="white"/>
<path d="M190.287 10.9664C189.992 10.4535 189.625 9.99655 189.184 9.59565C188.742 9.19475 188.263 8.82923 187.745 8.49908C187.227 8.17188 186.748 7.84467 186.307 7.52336C185.865 7.20206 185.498 6.86012 185.203 6.49754C184.909 6.13496 184.759 5.72522 184.759 5.26537C184.759 4.71119 184.98 4.27786 185.418 3.96245C185.859 3.64704 186.46 3.48786 187.221 3.48786C187.748 3.48786 188.248 3.56745 188.728 3.72368C189.207 3.88286 189.631 4.09215 189.998 4.3545L189.781 2.83345C189.36 2.65069 188.91 2.50919 188.43 2.40897C187.951 2.31169 187.448 2.26158 186.924 2.26158C185.518 2.26158 184.412 2.57405 183.606 3.19897C182.8 3.8239 182.394 4.6876 182.394 5.79302C182.394 6.4769 182.541 7.06646 182.838 7.55874C183.133 8.05102 183.509 8.49613 183.962 8.89113C184.415 9.28613 184.901 9.64576 185.418 9.96707C185.936 10.2884 186.424 10.6156 186.877 10.9428C187.33 11.2729 187.704 11.6237 188.001 11.9981C188.298 12.3725 188.445 12.8117 188.445 13.3099C188.445 13.9407 188.207 14.4359 187.727 14.7896C187.248 15.1463 186.595 15.3232 185.768 15.3232C185.139 15.3232 184.495 15.2141 183.839 14.9989C183.183 14.7808 182.565 14.4831 181.988 14.0999L182.282 15.9363C182.73 16.1338 183.25 16.2842 183.847 16.3903C184.445 16.4964 185.059 16.5495 185.689 16.5495C187.277 16.5495 188.516 16.2164 189.401 15.5531C190.287 14.8899 190.731 13.9643 190.731 12.7793C190.731 12.0806 190.584 11.4763 190.287 10.9634V10.9664Z" fill="white"/>
<path d="M74.7748 25.9838H75.9508L77.1929 29.0141H77.2457L78.4878 25.9838H79.6638V30.494H78.7389V27.5584H78.7014L77.5342 30.472H76.9044L75.7372 27.5474H75.6998V30.494H74.7748V25.9838ZM87.3044 30.494H86.2825L87.8395 25.9838H89.0684L90.6232 30.494H89.6013L88.4716 27.0144H88.4363L87.3044 30.494ZM87.2405 28.7212H89.6542V29.4655H87.2405V28.7212ZM97.1951 30.494V29.928L99.4458 26.77H97.1907V25.9838H100.644V26.5497L98.3909 29.7078H100.648V30.494H97.1951ZM108.235 30.494H107.213L108.77 25.9838H109.999L111.554 30.494H110.532L109.402 27.0144H109.367L108.235 30.494ZM108.171 28.7212H110.585V29.4655H108.171V28.7212ZM117.451 26.77V25.9838H121.155V26.77H119.774V30.494H118.832V26.77H117.451ZM127.843 30.494V25.9838H128.796V29.7078H130.73V30.494H127.843ZM138.331 30.494H137.31L138.867 25.9838H140.095L141.65 30.494H140.628L139.499 27.0144H139.463L138.331 30.494ZM138.268 28.7212H140.681V29.4655H138.268V28.7212ZM139.144 25.5477L139.611 24.5457H140.479L139.807 25.5477H139.144ZM152.043 25.9838V30.494H151.219L149.257 27.6553H149.224V30.494H148.271V25.9838H149.107L151.054 28.8203H151.094V25.9838H152.043Z" fill="white"/>
<defs>
<clipPath id="clip0_4894_57">
<rect width="27.1955" height="33.319" fill="white"/>
</clipPath>
</defs>
</svg>
